<svg width="16" height="16" viewBox="0 0 16 16" fill="none" xmlns="http://www.w3.org/2000/svg">
<path d="M4.46994 8.46943H6.03231V14.9677C6.03231 15.096 6.13521 15.2 6.2622 15.2H8.91132C9.03831 15.2 9.14121 15.096 9.14121 14.9677V8.50005H10.9373C11.0541 8.50005 11.1523 8.4115 11.1657 8.29433L11.4385 5.90199C11.446 5.83617 11.4253 5.77024 11.3817 5.72088C11.3381 5.67146 11.2757 5.64317 11.2101 5.64317H9.14127V4.14354C9.14127 3.69147 9.38217 3.46223 9.85741 3.46223C9.92514 3.46223 11.2101 3.46223 11.2101 3.46223C11.3371 3.46223 11.44 3.35825 11.44 3.22998V1.03399C11.44 0.905689 11.3371 0.801731 11.2101 0.801731H9.34587C9.33277 0.801087 9.3036 0.800003 9.26055 0.800003C8.93709 0.800003 7.81278 0.864152 6.92465 1.6896C5.94061 2.60433 6.0774 3.69956 6.11008 3.88946V5.64308H4.46988C4.34289 5.64308 4.23999 5.74704 4.23999 5.87534V8.23712C4.24005 8.36545 4.34295 8.46943 4.46994 8.46943Z" fill="#E6514A"/>
<path d="M8.82865 15.2H6.25892C5.97779 15.2 5.74907 14.9713 5.74907 14.6902V8.73758H4.52035C4.23921 8.73758 4.0105 8.50884 4.0105 8.22767V5.95998C4.0105 5.67885 4.23924 5.45013 4.52035 5.45013H5.82453V4.07651C5.78144 3.79869 5.68349 2.67192 6.70726 1.7299C7.6452 0.867081 8.82744 0.800003 9.16741 0.800003C9.20946 0.800003 9.23947 0.800931 9.25674 0.801662H11.0586C11.3397 0.801662 11.5684 1.03037 11.5684 1.31151V3.41996C11.5684 3.7011 11.3397 3.92981 11.0586 3.92981H9.74642C9.40355 3.92981 9.33855 4.0589 9.33855 4.29712V5.45016H11.0586C11.2037 5.45016 11.3424 5.51232 11.4391 5.62068C11.5358 5.7291 11.5816 5.87406 11.565 6.01837L11.3004 8.3154C11.2708 8.57282 11.053 8.76697 10.7939 8.76697H9.33844V14.6901C9.3385 14.9713 9.10976 15.2 8.82865 15.2ZM6.32274 14.6263H8.76478V8.48015C8.76478 8.32172 8.89322 8.1933 9.05162 8.1933H10.737L10.9869 6.02394H9.05171C8.89331 6.02394 8.76486 5.89552 8.76486 5.73709V4.29721C8.76486 3.70799 9.13181 3.3562 9.74645 3.3562H10.9948V1.37538H9.2503C9.24557 1.37538 9.24085 1.37527 9.23612 1.37505C9.23174 1.37482 9.20774 1.37375 9.16744 1.37375C8.87995 1.37375 7.88086 1.42989 7.09573 2.15217C6.25569 2.9251 6.36377 3.83044 6.39401 4.00412C6.39682 4.02034 6.39823 4.0368 6.39823 4.05325V5.73701C6.39823 5.89544 6.26978 6.02386 6.11138 6.02386H4.58416V8.16389H6.03589C6.19429 8.16389 6.32274 8.2923 6.32274 8.45073V14.6263Z" fill="#E6514A"/>
<path d="M6.90013 11.1841C6.74173 11.1841 6.61328 11.0556 6.61328 10.8972V10.7538C6.61328 10.5954 6.74173 10.4669 6.90013 10.4669C7.05853 10.4669 7.18697 10.5954 7.18697 10.7538V10.8972C7.187 11.0556 7.05853 11.1841 6.90013 11.1841Z" fill="#E6514A"/>
<path d="M6.90013 14.2821C6.74173 14.2821 6.61328 14.1537 6.61328 13.9952V11.8152C6.61328 11.6567 6.74173 11.5283 6.90013 11.5283C7.05853 11.5283 7.18697 11.6567 7.18697 11.8152V13.9952C7.187 14.1536 7.05853 14.2821 6.90013 14.2821Z" fill="#E6514A"/>
</svg>
